<svg xmlns:dc="http://purl.org/dc/elements/1.1/" xmlns:cc="http://creativecommons.org/ns#" xmlns:rdf="http://www.w3.org/1999/02/22-rdf-syntax-ns#" xmlns:svg="http://www.w3.org/2000/svg" xmlns="http://www.w3.org/2000/svg" xmlns:sodipodi="http://sodipodi.sourceforge.net/DTD/sodipodi-0.dtd" xmlns:inkscape="http://www.inkscape.org/namespaces/inkscape" viewBox="0 0 32 40" version="1.1" x="0px" y="0px"><g transform="translate(0,-1020.3622)"><path d="m 15.750172,1022.8649 c 0.283197,-0.01 0.566357,0.011 0.707505,0.068 l 0.308328,2.0156 c 0.01875,0.1255 -0.0225,0.2476 -0.09677,0.3319 l -0.926561,0.015 -0.92266,0.011 c -0.06939,-0.084 -0.104651,-0.2041 -0.08515,-0.328 l 0.308328,-2.0155 c 0.141036,-0.056 0.424196,-0.092 0.707505,-0.1 z" style="color:#000000;font-style:normal;font-variant:normal;font-weight:normal;font-stretch:normal;font-size:medium;line-height:normal;font-family:sans-serif;text-indent:0;text-align:start;text-decoration:none;text-decoration-line:none;text-decoration-style:solid;text-decoration-color:#000000;letter-spacing:normal;word-spacing:normal;text-transform:none;direction:ltr;writing-mode:lr-tb;baseline-shift:baseline;text-anchor:start;white-space:normal;clip-rule:nonzero;display:inline;overflow:visible;visibility:visible;opacity:1;isolation:auto;mix-blend-mode:normal;color-interpolation:sRGB;color-interpolation-filters:linearRGB;solid-color:#000000;solid-opacity:1;fill:#000000;fill-opacity:1;fill-rule:nonzero;stroke:none;stroke-width:1.00000012;stroke-linecap:round;stroke-linejoin:round;stroke-miterlimit:4;stroke-dasharray:none;stroke-dashoffset:0;stroke-opacity:1;color-rendering:auto;image-rendering:auto;shape-rendering:auto;text-rendering:auto;enable-background:accumulate"/><path d="m 14.957258,1026.2906 0.924573,0.011 0.653266,0.015 0.300451,1.1737 c 0.03001,0.1126 0.04464,0.2287 0.07164,0.3417 l -0.121906,0.086 -2.190369,-0.01 -0.02626,-0.015 c 0.03376,-0.1444 0.05251,-0.2922 0.08927,-0.4356 z m 2.333769,3.6151 c 0.06639,0.4822 0.133158,0.9645 0.166542,1.4511 l 0.184172,2.709 0,0.01 c 0.0225,0.3495 0.154539,0.5593 0.424495,0.746 0.876561,0.6041 1.486729,1.6878 1.486729,2.9667 l 0,9.5894 -0.160916,0.039 c -0.02626,0.01 -0.05514,0.019 -0.0814,0.03 -2.040932,0.9344 -4.796008,0.9612 -7.137016,-0.03 -0.02251,-0.011 -0.04726,-0.023 -0.07352,-0.03 l -0.153039,-0.039 0,-9.5874 c 0,-1.2742 0.601766,-2.3555 1.473188,-2.9609 0.279821,-0.1943 0.405966,-0.4176 0.432222,-0.7675 l 0.189799,-2.701 c 0.03376,-0.4758 0.0979,-0.9482 0.160915,-1.4199 0.03376,0 0.06639,0.015 0.100901,0.015 a 0.4962696,0.50002997 0 0 0 0.015,0 l 2.76993,0.01 a 0.4962696,0.50002997 0 0 0 0.02251,0 c 0.03376,0 0.06902,-0.011 0.102777,-0.015 0.01125,0 0.01875,0 0.03001,0 a 0.4962696,0.50002997 0 0 0 0.04276,-0.01 0.4962696,0.50002997 0 0 0 0.0038,0 z m 0.73076,8.4098 a 0.4962696,0.50002997 0 0 0 -0.505891,0.504 l 0,4.4879 a 0.4962696,0.50002997 0 1 0 0.990515,0 l 0,-4.4879 a 0.4962696,0.50002997 0 0 0 -0.440025,-0.502 0.4962696,0.50002997 0 0 0 -0.04464,0 z m 0.02626,5.9997 a 0.49621993,0.49997993 0 0 0 -0.03376,0 0.49621993,0.49997993 0 0 0 -0.496214,0.5001 0.49621993,0.49997993 0 0 0 0.496214,0.5 0.49621993,0.49997993 0 0 0 0.496213,-0.5 0.49621993,0.49997993 0 0 0 -0.46133,-0.5001 z" style="color:#000000;font-style:normal;font-variant:normal;font-weight:normal;font-stretch:normal;font-size:medium;line-height:normal;font-family:sans-serif;text-indent:0;text-align:start;text-decoration:none;text-decoration-line:none;text-decoration-style:solid;text-decoration-color:#000000;letter-spacing:normal;word-spacing:normal;text-transform:none;direction:ltr;writing-mode:lr-tb;baseline-shift:baseline;text-anchor:start;white-space:normal;clip-rule:nonzero;display:inline;overflow:visible;visibility:visible;opacity:1;isolation:auto;mix-blend-mode:normal;color-interpolation:sRGB;color-interpolation-filters:linearRGB;solid-color:#000000;solid-opacity:1;fill:#000000;fill-opacity:1;fill-rule:nonzero;stroke:none;stroke-width:1.00000012;stroke-linecap:round;stroke-linejoin:round;stroke-miterlimit:4;stroke-dasharray:none;stroke-dashoffset:0;stroke-opacity:1;color-rendering:auto;image-rendering:auto;shape-rendering:auto;text-rendering:auto;enable-background:accumulate"/><path d="m 20.000003,1048.0608 0,1.5428 -0.168793,0.059 c -2.500498,0.9126 -5.66968,0.9433 -8.162414,0.03 l -0.168793,-0.059 0,-1.5429 0.300452,0.1172 c 2.43677,0.9922 5.475043,0.9596 7.904611,-0.03 z" style="color:#000000;font-style:normal;font-variant:normal;font-weight:normal;font-stretch:normal;font-size:medium;line-height:normal;font-family:sans-serif;text-indent:0;text-align:start;text-decoration:none;text-decoration-line:none;text-decoration-style:solid;text-decoration-color:#000000;letter-spacing:normal;word-spacing:normal;text-transform:none;direction:ltr;writing-mode:lr-tb;baseline-shift:baseline;text-anchor:start;white-space:normal;clip-rule:nonzero;display:inline;overflow:visible;visibility:visible;opacity:1;isolation:auto;mix-blend-mode:normal;color-interpolation:sRGB;color-interpolation-filters:linearRGB;solid-color:#000000;solid-opacity:1;fill:#000000;fill-opacity:1;fill-rule:nonzero;stroke:none;stroke-width:1.00000012;stroke-linecap:round;stroke-linejoin:round;stroke-miterlimit:4;stroke-dasharray:none;stroke-dashoffset:0;stroke-opacity:1;color-rendering:auto;image-rendering:auto;shape-rendering:auto;text-rendering:auto;enable-background:accumulate"/><path d="m 17.996919,1023.4305 -0.711481,0.051 0.150038,0.9819 0.598014,-0.043 c 0.113654,0 0.178546,0.073 0.188298,0.1399 l 0.247938,1.6361 c 0.08252,0.5508 -0.308328,1.3618 -0.807618,1.8475 l -0.624946,0.3746 -2.463252,0.011 -0.747978,-0.5357 c -0.602553,-0.4304 -0.895727,-1.12 -0.792239,-1.8107 l 0.225058,-1.4905 c 0.01125,-0.068 0.07502,-0.1379 0.188298,-0.1379 l 0.642275,0 0.151914,-0.9917 -0.794189,0 c -0.568833,0 -1.075024,0.4073 -1.161408,0.9839 l -0.226933,1.4885 c -0.160166,1.0679 0.310204,2.1379 1.199893,2.7733 l 0.844189,0.5938 a 0.49231215,0.49686569 0 0 0 0.03751,0.03 0.49231215,0.49686569 0 0 0 0.08665,0.053 0.49231215,0.49686569 0 0 0 0.04426,0.015 0.49231215,0.49686569 0 0 0 0.04239,0.015 0.49231215,0.49686569 0 0 0 0.0075,0 0.49231215,0.49686569 0 0 0 0.102026,0.015 l 2.747799,-0.011 a 0.49231215,0.49686569 0 0 0 0.246063,-0.074 l 0.828773,-0.4831 a 0.49231215,0.49686569 0 0 0 0.08665,-0.074 c 0.700341,-0.6671 1.271423,-1.6829 1.113358,-2.7365 l -0.247938,-1.6341 c -0.08665,-0.5762 -0.592463,-0.9838 -1.161408,-0.9838 a 0.49231215,0.49686569 0 0 0 -0.03863,0 z" style="color:#000000;font-style:normal;font-variant:normal;font-weight:normal;font-stretch:normal;font-size:medium;line-height:normal;font-family:sans-serif;text-indent:0;text-align:start;text-decoration:none;text-decoration-line:none;text-decoration-style:solid;text-decoration-color:#000000;letter-spacing:normal;word-spacing:normal;text-transform:none;direction:ltr;writing-mode:lr-tb;baseline-shift:baseline;text-anchor:start;white-space:normal;clip-rule:nonzero;display:inline;overflow:visible;visibility:visible;opacity:1;isolation:auto;mix-blend-mode:normal;color-interpolation:sRGB;color-interpolation-filters:linearRGB;solid-color:#000000;solid-opacity:1;fill:#000000;fill-opacity:1;fill-rule:evenodd;stroke:none;stroke-width:0.26458332;stroke-linecap:round;stroke-linejoin:round;stroke-miterlimit:4;stroke-dasharray:none;stroke-dashoffset:0;stroke-opacity:1;color-rendering:auto;image-rendering:auto;shape-rendering:auto;text-rendering:auto;enable-background:accumulate"/></g><text x="0" y="47" fill="#000000" font-size="5px" font-weight="bold" font-family="'Helvetica Neue', Helvetica, Arial-Unicode, Arial, Sans-serif">Created by anbileru adaleru</text><text x="0" y="52" fill="#000000" font-size="5px" font-weight="bold" font-family="'Helvetica Neue', Helvetica, Arial-Unicode, Arial, Sans-serif">from the Noun Project</text></svg>